HIERARCHY
ROOT Hips
{
 OFFSET 0.000000 0.000000 0.000000
 CHANNELS 6 Xposition Yposition Zposition Yrotation Xrotation Zrotation
 JOINT Chest
 {
  OFFSET 0.000000 9.585900 0.002600
  CHANNELS 3 Yrotation Xrotation Zrotation
  JOINT Chest2
  {
   OFFSET 0.000000 9.601200 -0.005300
   CHANNELS 3 Yrotation Xrotation Zrotation
   JOINT Chest3
   {
    OFFSET 0.000000 9.561800 0.000000
    CHANNELS 3 Yrotation Xrotation Zrotation
    JOINT Chest4
    {
     OFFSET 0.000000 9.552100 0.000000
     CHANNELS 3 Yrotation Xrotation Zrotation
     JOINT Neck
     {
      OFFSET 0.000000 14.453000 0.000000
      CHANNELS 3 Yrotation Xrotation Zrotation
      JOINT Head
      {
       OFFSET 0.000000 8.936500 -0.011300
       CHANNELS 3 Yrotation Xrotation Zrotation
       End Site
       {
        OFFSET 0.000000 17.073600 -0.006000
       }
      }
     }
     JOINT RightCollar
     {
      OFFSET -2.921100 9.558500 0.000000
      CHANNELS 3 Yrotation Xrotation Zrotation
      JOINT RightShoulder
      {
       OFFSET -13.519700 0.000000 0.000000
       CHANNELS 3 Yrotation Xrotation Zrotation
       JOINT RightElbow
       {
        OFFSET 0.000000 -29.696600 0.000000
        CHANNELS 3 Yrotation Xrotation Zrotation
        JOINT RightWrist
        {
         OFFSET 0.000000 -24.004700 0.000000
         CHANNELS 3 Yrotation Xrotation Zrotation
         End Site
         {
          OFFSET 0.000000 -17.728500 0.000000
         }
        }
       }
      }
     }
     JOINT LeftCollar
     {
      OFFSET 2.921100 9.558500 0.000000
      CHANNELS 3 Yrotation Xrotation Zrotation
      JOINT LeftShoulder
      {
       OFFSET 13.519700 0.000000 0.000000
       CHANNELS 3 Yrotation Xrotation Zrotation
       JOINT LeftElbow
       {
        OFFSET 0.000000 -29.696600 0.000000
        CHANNELS 3 Yrotation Xrotation Zrotation
        JOINT LeftWrist
        {
         OFFSET 0.000000 -24.004700 0.000000
         CHANNELS 3 Yrotation Xrotation Zrotation
         End Site
         {
          OFFSET 0.000000 -17.728500 0.000000
         }
        }
       }
      }
     }
    }
   }
  }
 }
 JOINT RightHip
 {
  OFFSET -7.771700 -0.012900 -0.001300
  CHANNELS 3 Yrotation Xrotation Zrotation
  JOINT RightKnee
  {
   OFFSET 0.000000 -40.869800 0.001200
   CHANNELS 3 Yrotation Xrotation Zrotation
   JOINT RightAnkle
   {
    OFFSET 0.000000 -39.717900 0.002100
    CHANNELS 3 Yrotation Xrotation Zrotation
    JOINT RightToe
    {
     OFFSET 0.000000 -4.965400 11.033500
     CHANNELS 3 Yrotation Xrotation Zrotation
     End Site
     {
      OFFSET 0.000000 -1.423100 5.872300
     }
    }
   }
  }
 }
 JOINT LeftHip
 {
  OFFSET 7.771700 -0.012900 -0.001300
  CHANNELS 3 Yrotation Xrotation Zrotation
  JOINT LeftKnee
  {
   OFFSET 0.000000 -40.869800 0.001200
   CHANNELS 3 Yrotation Xrotation Zrotation
   JOINT LeftAnkle
   {
    OFFSET 0.000000 -39.717900 0.002100
    CHANNELS 3 Yrotation Xrotation Zrotation
    JOINT LeftToe
    {
     OFFSET 0.000000 -4.965400 11.033500
     CHANNELS 3 Yrotation Xrotation Zrotation
     End Site
     {
      OFFSET 0.000000 -1.423100 5.872300
     }
    }
   }
  }
 }
}
MOTION
Frames: 11
Frame Time: 0.008333
-13.969316 57.567703 69.829151 179.711069 -28.155731 -1.248269 2.383085 18.504152 4.121131 0.241400 2.342768 0.321441 0.467916 3.841255 0.539985 2.346770 16.609985 2.630441 1.040165 10.853492 -1.901399 2.855068 -15.563879 -4.128778 3.836857 -4.278437 -1.533364 23.022955 -22.512818 -24.841015 134.107623 -76.542814 -87.620399 17.162399 -10.789368 -46.166468 -6.900461 -3.965698 -2.996839 -1.851949 -9.643676 -0.230381 32.319370 -27.693831 -71.052472 13.042080 -6.575224 24.954188 10.087136 -43.382953 -5.277300 -2.081667 66.778041 -2.760255 4.264480 7.378351 8.075449 -0.049933 0.270418 -0.048929 -10.314061 -50.430426 2.521887 27.882668 66.023471 29.731485 -15.205683 30.853837 -3.117782 0.523099 -16.543057 -6.072184
-13.962251 57.570982 69.821259 179.676383 -28.159570 -1.248418 2.380334 18.517643 4.125119 0.238449 2.340154 0.317285 0.488342 3.837701 0.542604 2.322768 16.608069 2.632497 1.054616 10.848805 -1.906231 2.873941 -15.566961 -4.138537 3.781838 -4.318056 -1.540687 23.098592 -22.514009 -24.850242 134.158818 -76.567454 -87.609769 17.165611 -10.766375 -46.234008 -6.902342 -3.974726 -2.986380 -1.837711 -9.642252 -0.235921 32.326138 -27.677426 -71.059715 13.024101 -6.529622 24.960258 10.085369 -43.373864 -5.247284 -2.080206 66.784142 -2.753741 4.265416 7.366230 8.066623 -0.051614 0.257947 -0.043100 -10.297024 -50.427936 2.535106 27.894762 66.034789 29.762817 -15.184018 30.840642 -3.103622 0.497648 -16.506430 -6.084173
-13.943116 57.577798 69.808005 179.608932 -28.194875 -1.311382 2.430533 18.556394 4.205071 0.238490 2.340027 0.319215 0.508281 3.833243 0.544370 2.299146 16.607167 2.634315 1.086531 10.848364 -1.916636 2.854828 -15.585441 -4.127414 3.774649 -4.335454 -1.550976 23.118572 -22.567409 -24.900044 134.264576 -76.641084 -87.640075 17.189928 -10.729804 -46.317516 -6.956013 -3.992886 -2.950677 -1.768288 -9.634608 -0.261866 32.301711 -27.661743 -71.064394 13.012505 -6.514897 24.971418 10.033465 -43.334181 -5.107162 -2.112043 66.764673 -2.752117 4.282128 7.367123 8.034322 -0.047997 0.252833 -0.046448 -10.345148 -50.381186 2.659115 27.944715 66.065536 29.838764 -15.110336 30.812252 -3.043190 0.437040 -16.478334 -6.124660
-13.934625 57.584365 69.795379 179.528060 -28.220135 -1.311457 2.473264 18.588628 4.227671 0.239791 2.338370 0.318063 0.475169 3.835002 0.542606 2.327893 16.600588 2.635650 1.092586 10.843665 -1.914223 2.865706 -15.597211 -4.128739 3.765511 -4.353906 -1.559808 23.158338 -22.588842 -24.930528 134.323395 -76.689999 -87.667283 17.207785 -10.710483 -46.361601 -6.945460 -3.998646 -2.944375 -1.867970 -9.644359 -0.214280 32.385972 -27.619515 -71.097282 13.005925 -6.523966 24.987100 10.033383 -43.304866 -5.035159 -2.110002 66.761108 -2.748799 4.293398 7.355654 8.019373 -0.048956 0.252227 -0.048643 -10.327002 -50.347250 2.706381 27.982133 66.098011 29.889688 -15.051337 30.725570 -3.003072 0.394824 -16.396472 -6.148610
-13.928066 57.590340 69.784512 179.464944 -28.230543 -1.316062 2.500887 18.606208 4.245344 0.238980 2.336203 0.317534 0.474233 3.833425 0.543075 2.324436 16.597587 2.637878 1.098694 10.837552 -1.913538 2.851868 -15.625318 -4.103329 3.759888 -4.372583 -1.570005 23.202803 -22.580674 -24.931086 134.323999 -76.691081 -87.636002 17.205043 -10.701824 -46.396589 -6.912325 -4.000228 -2.951294 -1.921998 -9.649070 -0.193200 32.344121 -27.582916 -71.100628 13.004840 -6.580731 25.010525 10.000464 -43.290106 -4.957650 -2.091484 66.757121 -2.746563 4.307336 7.341451 8.005789 -0.048323 0.251360 -0.047980 -10.331411 -50.321276 2.760161 27.978158 66.135823 29.895987 -14.987637 30.592798 -2.972092 0.371288 -16.287916 -6.171851
-13.915805 57.598851 69.770100 179.335502 -28.267837 -1.330713 2.602620 18.645813 4.305785 0.234227 2.335488 0.319162 0.463419 3.832920 0.541963 2.330438 16.594287 2.640162 1.073035 10.823122 -1.893887 2.903991 -15.629297 -4.123281 3.775100 -4.385486 -1.582449 23.226135 -22.596990 -24.962517 134.381260 -76.718342 -87.599629 17.215642 -10.658787 -46.511019 -6.909493 -4.013935 -2.941175 -1.905707 -9.641885 -0.202442 32.293493 -27.559170 -71.099175 13.007998 -6.636548 25.029212 10.018524 -43.251084 -4.835832 -2.116286 66.737178 -2.761296 4.326198 7.341670 7.990523 -0.050408 0.240720 -0.041337 -10.320773 -50.264122 2.867163 27.948909 66.197208 29.898275 -14.919185 30.454985 -2.980788 0.348453 -16.193298 -6.175333
-13.906512 57.607334 69.756400 179.244096 -28.302943 -1.352202 2.626435 18.692054 4.336951 0.264578 2.330492 0.322886 0.462664 3.831634 0.542091 2.353872 16.591147 2.643439 1.057534 10.815219 -1.883828 2.919179 -15.643152 -4.117400 3.755901 -4.403035 -1.589475 23.251440 -22.646686 -25.030395 134.506451 -76.803032 -87.636884 17.236639 -10.610273 -46.630048 -6.971225 -4.033808 -2.907482 -1.843828 -9.633325 -0.226086 32.265245 -27.536927 -71.098814 13.007921 -6.670128 25.046592 10.020209 -43.209226 -4.736658 -2.149596 66.719926 -2.778697 4.347152 7.334760 7.975443 -0.050813 0.237375 -0.040455 -10.333272 -50.198674 2.937602 27.924542 66.219184 29.910277 -14.804812 30.364552 -2.951154 0.283461 -16.102909 -6.200219
-13.897943 57.613109 69.748484 179.178779 -28.304963 -1.386812 2.644360 18.703302 4.371933 0.276487 2.328123 0.325581 0.462301 3.830491 0.542208 2.378283 16.586906 2.647325 1.042762 10.807115 -1.873259 2.941989 -15.652620 -4.117527 3.722559 -4.424935 -1.594873 23.303973 -22.645714 -25.036890 134.515380 -76.810641 -87.575900 17.237095 -10.588365 -46.710825 -6.989075 -4.043139 -2.894722 -1.909634 -9.634070 -0.188561 32.359987 -27.506086 -71.126428 13.004844 -6.644113 25.056156 10.011079 -43.200873 -4.648971 -2.190614 66.700604 -2.800078 4.365505 7.331325 7.961988 -0.049870 0.233799 -0.039264 -10.355380 -50.182378 3.030852 27.820540 66.265825 29.854935 -14.794657 30.274383 -3.018278 0.290124 -16.008047 -6.179908
-13.895495 57.618050 69.742365 179.114050 -28.303077 -1.387088 2.662090 18.711601 4.375627 0.288935 2.325346 0.329280 0.449384 3.831297 0.539249 2.377156 16.581342 2.648397 1.062408 10.802376 -1.870319 2.968113 -15.652931 -4.127431 3.724498 -4.440608 -1.604785 23.348055 -22.649484 -25.045787 134.521540 -76.822239 -87.526843 17.239022 -10.572877 -46.776748 -6.971851 -4.049585 -2.890434 -1.926506 -9.629352 -0.174286 32.390420 -27.489972 -71.141412 13.009453 -6.593820 25.071728 10.025906 -43.198939 -4.614961 -2.192534 66.692789 -2.785280 4.383204 7.330029 7.944752 -0.050021 0.223885 -0.035658 -10.340912 -50.173734 3.053260 27.777463 66.279485 29.859130 -14.763938 30.227811 -3.057413 0.268767 -15.938065 -6.172382
-13.890721 57.621689 69.739264 179.057275 -28.292273 -1.403756 2.701226 18.704357 4.406181 0.301461 2.322985 0.332921 0.409156 3.836414 0.529645 2.326713 16.585853 2.642699 1.151153 10.793528 -1.882340 2.948303 -15.679177 -4.100360 3.802360 -4.455379 -1.622432 23.371826 -22.677774 -25.085662 134.549659 -76.864719 -87.494309 17.247785 -10.546163 -46.852037 -6.880995 -4.060708 -2.900639 -1.964357 -9.624551 -0.154392 32.390060 -27.467888 -71.160863 13.017794 -6.593429 25.090222 10.012208 -43.203056 -4.565752 -2.164547 66.675399 -2.738126 4.399749 7.317065 7.925405 -0.052400 0.228228 -0.037922 -10.342923 -50.188583 3.075063 27.789055 66.288808 29.933636 -14.710302 30.234258 -3.071846 0.222502 -15.910410 -6.182484
-13.882378 57.624300 69.738502 178.998090 -28.278662 -1.435901 2.747368 18.692849 4.453473 0.276281 2.326512 0.325711 0.402844 3.837819 0.528184 2.327417 16.585986 2.642840 1.166472 10.776417 -1.875142 2.927214 -15.737805 -4.059332 3.834678 -4.470538 -1.632321 23.378465 -22.736646 -25.162162 134.669209 -76.953273 -87.527453 17.257833 -10.521121 -46.918891 -6.871046 -4.075019 -2.888534 -1.960309 -9.612531 -0.148594 32.326294 -27.404716 -71.189106 13.004939 -6.666920 25.128507 9.996347 -43.204757 -4.494042 -2.164026 66.645002 -2.716083 4.414915 7.286137 7.921643 -0.054665 0.253420 -0.050328 -10.358875 -50.207405 3.148902 27.749225 66.304878 29.956766 -14.779724 30.262650 -3.144315 0.218210 -15.861011 -6.178066
